<?xml version="1.0" encoding="UTF-8" standalone="no"?>
<svg
   xmlns:dc="http://purl.org/dc/elements/1.1/"
   xmlns:cc="http://creativecommons.org/ns#"
   xmlns:rdf="http://www.w3.org/1999/02/22-rdf-syntax-ns#"
   xmlns:svg="http://www.w3.org/2000/svg"
   xmlns="http://www.w3.org/2000/svg"
   viewBox="0 0 1333.3333 1333.3333"
   height="1333.3333"
   width="1333.3333"
   xml:space="preserve"
   id="svg2"
   version="1.1"><metadata
     id="metadata8"><rdf:RDF><cc:Work
         rdf:about=""><dc:format>image/svg+xml</dc:format><dc:type
           rdf:resource="http://purl.org/dc/dcmitype/StillImage" /></cc:Work></rdf:RDF></metadata><defs
     id="defs6"><clipPath
       id="clipPath18"
       clipPathUnits="userSpaceOnUse"><path
         id="path16"
         d="M 0,1000 H 1000 V 0 H 0 Z" /></clipPath></defs><g
     transform="matrix(1.3333333,0,0,-1.3333333,0,1333.3333)"
     id="g10"><g
       id="g12"><g
         clip-path="url(#clipPath18)"
         id="g14"><g
           transform="translate(585.876,438.1836)"
           id="g20"><path
             id="path22"
             style="fill:#bc9255;fill-opacity:1;fill-rule:nonzero;stroke:none"
             d="m 0,0 h 29.072 c 0.483,0.793 0.962,1.595 1.442,2.397 L 0,75.952 Z" /></g><g
           transform="translate(415.2202,514.1357)"
           id="g24"><path
             id="path26"
             style="fill:#bc9255;fill-opacity:1;fill-rule:nonzero;stroke:none"
             d="m 0,0 -30.975,-74.624 c 0.267,-0.442 0.533,-0.889 0.8,-1.328 H 0 Z" /></g><g
           transform="translate(457.895,578.8398)"
           id="g28"><path
             id="path30"
             style="fill:#bc9255;fill-opacity:1;fill-rule:nonzero;stroke:none"
             d="M 0,0 C -0.05,-0.03 -0.1,-0.05 -0.15,-0.07 H 0.1 C 0.07,-0.05 0.03,-0.02 0,0 M 0,0 C -0.05,-0.03 -0.1,-0.05 -0.15,-0.07 H 0.1 C 0.07,-0.05 0.03,-0.02 0,0 M 0,0 C -0.05,-0.03 -0.1,-0.05 -0.15,-0.07 H 0.1 C 0.07,-0.05 0.03,-0.02 0,0 M 68.08,22.21 64.1,12.11 h 7.99 z m 0,0 -3.98,-10.1 h 7.99 z M 0,0 C -0.05,-0.03 -0.1,-0.05 -0.15,-0.07 H 0.1 C 0.07,-0.05 0.03,-0.02 0,0 M 0,0 C -0.05,-0.03 -0.1,-0.05 -0.15,-0.07 H 0.1 C 0.07,-0.05 0.03,-0.02 0,0 M 68.08,22.21 64.1,12.11 h 7.99 z m 0,0 -3.98,-10.1 h 7.99 z M 0,0 C -0.05,-0.03 -0.1,-0.05 -0.15,-0.07 H 0.1 C 0.07,-0.05 0.03,-0.02 0,0 M 0,0 C -0.05,-0.03 -0.1,-0.05 -0.15,-0.07 H 0.1 C 0.07,-0.05 0.03,-0.02 0,0 m 64.1,12.11 h 7.99 l -4.01,10.1 z m 114.37,1.14 c -0.44,0 -0.94,-0.03 -1.49,-0.08 -0.54,-0.05 -1.09,-0.1 -1.62,-0.14 V 3.04 c 0.63,-0.13 1.28,-0.21 1.94,-0.26 0.65,-0.05 1.28,-0.07 1.86,-0.07 2.1,-0.03 3.65,0.47 4.65,1.5 1,1.02 1.51,2.39 1.53,4.1 0,1.53 -0.54,2.74 -1.62,3.62 -1.09,0.88 -2.84,1.32 -5.25,1.32 M 197.2,1.37 c 0.27,-0.55 0.71,-1.03 1.32,-1.44 h -7.1 c 0.58,0.41 1,0.89 1.26,1.44 0.26,0.55 0.4,1.29 0.42,2.22 v 18.29 c -0.02,0.9 -0.16,1.63 -0.42,2.18 -0.26,0.55 -0.68,1.04 -1.26,1.48 h 7.1 c -0.61,-0.44 -1.05,-0.93 -1.3,-1.48 -0.26,-0.55 -0.39,-1.28 -0.39,-2.18 V 3.59 c -0.02,-0.93 0.1,-1.67 0.37,-2.22 m -10.3,0.81 c -1.77,-1.5 -4.46,-2.25 -8.07,-2.25 h -8.89 c 0.59,0.41 1.01,0.89 1.26,1.44 0.26,0.55 0.4,1.29 0.42,2.22 v 18.29 c -0.02,0.9 -0.16,1.63 -0.42,2.18 -0.25,0.55 -0.67,1.04 -1.26,1.48 h 7.1 c -0.61,-0.44 -1.04,-0.93 -1.3,-1.48 -0.26,-0.55 -0.38,-1.28 -0.38,-2.18 v -6.15 c 0.85,0.08 1.72,0.14 2.59,0.2 0.88,0.06 1.61,0.1 2.2,0.1 2.97,0 5.29,-0.68 6.93,-2.03 1.65,-1.36 2.47,-3.27 2.47,-5.73 0,-2.56 -0.88,-4.59 -2.65,-6.09 M 167.09,21.4 c -0.27,0.44 -0.62,0.76 -1.06,0.96 -0.44,0.19 -1.06,0.29 -1.87,0.29 l -4.1,-0.04 V 3.59 c 0,-0.93 0.13,-1.67 0.39,-2.22 0.25,-0.55 0.69,-1.03 1.3,-1.44 h -7.1 c 0.58,0.41 1,0.89 1.26,1.44 0.26,0.55 0.4,1.28 0.42,2.21 v 18.99 l -4.35,0.04 c -0.81,0 -1.52,-0.13 -2.13,-0.4 -0.61,-0.27 -1.17,-0.65 -1.68,-1.14 l 1.47,4.61 c 0.31,-0.07 0.62,-0.12 0.93,-0.14 0.3,-0.03 0.77,-0.03 1.41,0 h 14.16 c 0.31,0 0.67,0.01 1.06,0.04 0.39,0.02 0.78,0.06 1.17,0.1 z M 145.3,1.34 c 0.26,-0.53 0.69,-1 1.3,-1.41 h -7.1 c 0.59,0.41 1.01,0.88 1.28,1.41 0.27,0.52 0.4,1.27 0.4,2.25 V 20.77 L 128.16,1.35 c -0.27,-0.39 -0.5,-0.68 -0.68,-0.87 -0.18,-0.2 -0.38,-0.38 -0.6,-0.55 h -5.2 c 0.59,0.41 1.01,0.88 1.28,1.41 0.27,0.52 0.4,1.27 0.4,2.25 v 18.29 c 0,0.95 -0.13,1.69 -0.4,2.21 -0.27,0.53 -0.69,1.01 -1.28,1.45 h 7.1 c -0.61,-0.44 -1.04,-0.92 -1.3,-1.45 -0.25,-0.52 -0.38,-1.26 -0.38,-2.21 V 4.7 l 13.02,19.41 c 0.25,0.37 0.46,0.65 0.64,0.84 0.19,0.2 0.4,0.39 0.64,0.59 h 5.2 c -0.61,-0.44 -1.04,-0.92 -1.3,-1.45 -0.26,-0.52 -0.38,-1.26 -0.38,-2.21 V 3.59 c 0,-0.98 0.12,-1.73 0.38,-2.25 m -26.14,-7.27 -2.2,-0.84 c 0.08,1.93 -0.16,3.53 -0.69,4.79 -0.54,1.27 -1.41,1.91 -2.63,1.91 H 83.41 c 0.59,0.41 1.01,0.88 1.28,1.41 0.27,0.52 0.4,1.27 0.4,2.25 v 18.29 c 0,0.95 -0.13,1.69 -0.4,2.21 -0.27,0.53 -0.69,1.01 -1.28,1.45 h 7.1 C 89.9,25.1 89.47,24.62 89.21,24.09 88.95,23.57 88.83,22.83 88.83,21.88 V 2.85 h 9.69 v 19.03 c 0,0.95 -0.13,1.69 -0.4,2.21 -0.27,0.53 -0.7,1.01 -1.28,1.45 h 7.1 c -0.61,-0.44 -1.04,-0.92 -1.3,-1.45 -0.26,-0.52 -0.39,-1.26 -0.39,-2.21 V 2.85 h 9.7 v 19.03 c 0,0.95 -0.13,1.69 -0.4,2.21 -0.27,0.53 -0.7,1.01 -1.28,1.45 h 7.09 c -0.6,-0.44 -1.04,-0.92 -1.31,-1.45 -0.27,-0.52 -0.39,-1.26 -0.37,-2.21 V 2.85 h 3.48 z M 42.64,67.48 C 35.81,67.47 28.99,67.15 22.17,66.88 L 11.95,66.22 C 8.54,66.03 5.14,65.64 1.74,65.39 -11.88,64.21 -25.44,62.46 -38.95,60.36 -52.46,58.21 -65.9,55.63 -79.25,52.59 -92.62,49.65 -105.87,46.11 -118.96,42 c 25.65,9.82 52.4,16.71 79.44,21.69 27.07,4.91 54.55,7.82 82.11,8.14 13.77,0.13 27.56,-0.2 41.29,-1.4 l 5.15,-0.41 5.14,-0.58 c 3.42,-0.41 6.85,-0.74 10.26,-1.21 6.82,-1.01 13.64,-1.95 20.39,-3.37 27.1,-5 53.49,-13.63 78.34,-25.25 l -9.64,3.61 -4.79,1.84 -4.88,1.61 -9.75,3.22 -9.88,2.79 c -1.65,0.45 -3.27,0.97 -4.93,1.39 l -4.98,1.21 c -3.33,0.79 -6.63,1.68 -9.97,2.38 -6.7,1.33 -13.36,2.86 -20.12,3.86 -6.72,1.22 -13.51,2 -20.27,2.93 -3.38,0.41 -6.79,0.69 -10.18,1.04 l -5.1,0.5 -5.1,0.34 c -13.61,1.06 -27.28,1.35 -40.93,1.15 m 32.1,-67.55 c 0.61,0.27 1.01,0.63 1.2,1.09 0.2,0.47 0.16,1.05 -0.1,1.76 L 73.07,9.66 H 63.14 L 60.84,3.92 C 60.43,2.91 60.32,2.11 60.5,1.5 60.68,0.89 61.09,0.37 61.72,-0.07 h -6.88 c 0.7,0.44 1.29,0.99 1.78,1.66 0.48,0.67 0.99,1.67 1.52,2.98 l 7.34,18.52 c 0.22,0.58 0.25,1.08 0.09,1.5 -0.16,0.41 -0.47,0.73 -0.93,0.95 h 6.02 L 79.45,3.7 c 0.42,-1.05 0.87,-1.86 1.36,-2.42 0.49,-0.56 1.08,-1.01 1.76,-1.35 z m -23.1,1.7 c -2.02,-1.5 -4.83,-2.25 -8.44,-2.25 -1.46,0 -2.75,0.11 -3.86,0.33 -1.11,0.22 -2.22,0.62 -3.35,1.21 l -0.98,4.97 c 1.19,-1.27 2.44,-2.17 3.75,-2.71 1.3,-0.53 2.72,-0.8 4.26,-0.8 2.29,0 4.1,0.45 5.41,1.35 1.32,0.9 1.99,2.19 2.02,3.84 0,1.54 -0.57,2.74 -1.71,3.61 -1.13,0.86 -2.65,1.3 -4.55,1.3 -0.8,0 -1.49,-0.06 -2.07,-0.17 -0.57,-0.11 -1.09,-0.27 -1.55,-0.49 v 3.8 c 0.58,-0.12 1.05,-0.2 1.41,-0.24 0.35,-0.03 0.77,-0.05 1.26,-0.05 2.05,-0.02 3.55,0.34 4.5,1.08 0.95,0.74 1.44,1.74 1.46,2.98 0,1.17 -0.42,2.08 -1.26,2.73 -0.84,0.64 -2.02,0.97 -3.53,0.97 -1.27,0 -2.56,-0.19 -3.88,-0.55 -1.32,-0.37 -2.58,-0.92 -3.8,-1.65 l 0.55,4.61 c 1.26,0.05 2.43,0.16 3.49,0.33 1.06,0.17 2.26,0.26 3.6,0.26 3.05,0 5.32,-0.55 6.81,-1.65 1.49,-1.1 2.23,-2.61 2.23,-4.54 0,-1.48 -0.45,-2.71 -1.34,-3.67 -0.89,-0.97 -2.09,-1.6 -3.6,-1.89 v -0.11 c 1.85,-0.02 3.35,-0.63 4.48,-1.83 1.14,-1.19 1.7,-2.69 1.7,-4.5 0,-2.68 -1,-4.77 -3.01,-6.27 M 21.4,1.37 c 0.26,-0.55 0.7,-1.03 1.31,-1.44 h -7.09 c 0.58,0.41 1,0.89 1.26,1.44 0.25,0.55 0.39,1.29 0.42,2.22 v 19.17 c -0.39,0.07 -0.78,0.13 -1.17,0.16 -0.39,0.04 -0.82,0.06 -1.28,0.06 -1.69,0 -2.97,-0.41 -3.86,-1.23 -0.89,-0.82 -1.34,-1.96 -1.34,-3.42 0,-1.51 0.64,-2.72 1.92,-3.62 1.28,-0.9 2.84,-1.28 4.67,-1.14 C 13.8,9.16 11.49,5.74 9.32,3.33 7.15,0.92 5.32,-0.29 3.83,-0.29 c -0.31,0 -0.75,0.02 -1.31,0.05 -0.56,0.04 -1.45,0.09 -2.67,0.17 H -7 c 0.59,0.41 1.02,0.88 1.28,1.41 0.27,0.52 0.41,1.27 0.41,2.25 V 20.77 L -18.34,1.35 C -18.61,0.96 -18.83,0.67 -19.01,0.48 -19.2,0.28 -19.4,0.1 -19.62,-0.07 h -5.19 c 0.58,0.41 1.01,0.88 1.28,1.41 0.27,0.52 0.4,1.27 0.4,2.25 v 18.29 c 0,0.95 -0.13,1.69 -0.4,2.21 -0.27,0.53 -0.7,1.01 -1.28,1.45 h 7.09 c -0.61,-0.44 -1.04,-0.92 -1.29,-1.45 -0.26,-0.52 -0.39,-1.26 -0.39,-2.21 V 4.7 l 13.03,19.41 c 0.24,0.37 0.45,0.65 0.64,0.84 0.18,0.2 0.39,0.39 0.64,0.59 H 0.1 C -0.51,25.1 -0.94,24.62 -1.2,24.09 -1.45,23.57 -1.58,22.83 -1.58,21.88 V 3.59 C -1.58,2.61 -1.45,1.86 -1.2,1.34 -0.95,0.84 -0.56,0.39 0,0 1.57,0.72 3.35,2.12 5.33,4.19 7.38,6.32 9.49,9 11.66,12.22 c -1.97,0.34 -3.51,1.09 -4.61,2.25 -1.09,1.16 -1.63,2.49 -1.61,4.01 0,2.31 0.78,4.09 2.33,5.34 1.55,1.24 3.86,1.86 6.93,1.86 0.1,0 0.21,0 0.33,-0.01 0.12,-0.02 1.07,-0.03 2.85,-0.06 0.52,-0.02 1.06,-0.04 1.63,-0.05 0.57,-0.02 1.64,-0.02 3.2,-0.02 -0.61,-0.44 -1.04,-0.93 -1.3,-1.48 -0.25,-0.55 -0.38,-1.28 -0.38,-2.18 V 3.59 C 21.01,2.66 21.13,1.92 21.4,1.37 M -30.36,1.34 c 0.26,-0.53 0.69,-1 1.3,-1.41 h -7.1 c 0.59,0.41 1.02,0.88 1.28,1.41 0.27,0.52 0.41,1.27 0.41,2.25 v 8.92 H -48.56 V 3.59 c 0,-0.98 0.13,-1.73 0.38,-2.25 0.26,-0.53 0.69,-1 1.3,-1.41 h -7.09 c 0.58,0.41 1.01,0.88 1.28,1.41 0.26,0.52 0.4,1.27 0.4,2.25 v 18.29 c 0,0.95 -0.14,1.69 -0.4,2.21 -0.27,0.53 -0.7,1.01 -1.28,1.45 h 7.09 c -0.61,-0.44 -1.04,-0.92 -1.3,-1.45 -0.25,-0.52 -0.38,-1.26 -0.38,-2.21 v -6.44 h 14.09 v 6.44 c 0,0.95 -0.14,1.69 -0.41,2.21 -0.26,0.53 -0.69,1.01 -1.28,1.45 h 7.1 c -0.61,-0.44 -1.04,-0.92 -1.3,-1.45 -0.25,-0.52 -0.38,-1.26 -0.38,-2.21 V 3.59 c 0,-0.98 0.13,-1.73 0.38,-2.25 m -29.16,0 c 0.26,-0.53 0.69,-1 1.3,-1.41 h -7.1 c 0.59,0.41 1.02,0.88 1.28,1.41 0.27,0.52 0.41,1.27 0.41,2.25 V 20.77 L -76.66,1.35 c -0.27,-0.39 -0.49,-0.68 -0.68,-0.87 -0.18,-0.2 -0.38,-0.38 -0.6,-0.55 h -5.19 c 0.58,0.41 1.01,0.88 1.28,1.41 0.26,0.52 0.4,1.27 0.4,2.25 v 18.29 c 0,0.95 -0.14,1.69 -0.4,2.21 -0.27,0.53 -0.7,1.01 -1.28,1.45 h 7.09 c -0.61,-0.44 -1.04,-0.92 -1.3,-1.45 -0.25,-0.52 -0.38,-1.26 -0.38,-2.21 V 4.7 l 13.03,19.41 c 0.24,0.37 0.45,0.65 0.64,0.84 0.18,0.2 0.39,0.39 0.64,0.59 h 5.19 c -0.61,-0.44 -1.04,-0.92 -1.3,-1.45 -0.25,-0.52 -0.38,-1.26 -0.38,-2.21 V 3.59 c 0,-0.98 0.13,-1.73 0.38,-2.25 m -29.21,0.03 c 0.27,-0.55 0.71,-1.03 1.31,-1.44 h -7.09 c 0.58,0.41 1,0.89 1.26,1.44 0.26,0.55 0.4,1.29 0.42,2.22 v 19.02 h -7.35 v -4.02 c 0,-7.15 -0.63,-12.14 -1.87,-14.97 -1.24,-2.83 -3.09,-4.24 -5.52,-4.24 -0.32,0 -0.63,0.03 -0.92,0.09 -0.29,0.06 -0.59,0.14 -0.88,0.24 l -0.47,4.21 c 0.36,-0.37 0.73,-0.64 1.09,-0.81 0.37,-0.17 0.76,-0.26 1.18,-0.26 1.41,0 2.47,1.39 3.18,4.17 0.71,2.79 1.06,6.5 1.06,11.16 -0.03,2.69 -0.24,4.5 -0.66,5.44 -0.41,0.94 -1.08,1.58 -2.01,1.92 h 18.62 c -0.63,-0.44 -1.08,-0.92 -1.35,-1.45 -0.27,-0.52 -0.39,-1.26 -0.37,-2.21 V 3.59 C -89.12,2.66 -89,1.92 -88.73,1.37 M 42.1,134.4 C -9.7,55.44 -129.08,82.6 -129.08,82.6 c 1.61,-99.65 24.88,-169.98 53.76,-219.12 l 32.3,77.85 c -0.47,0.04 -0.96,0.09 -1.46,0.16 0,0 -15.21,4.12 -2.98,20.62 12.21,16.47 37.38,-16.35 48.33,-13.37 0,0 -2.86,6.39 3.54,13.51 0,0 4.71,-15.86 33,-9.01 v 1.06 h -4.66 c -1.89,0 -3.43,1.54 -3.43,3.43 v 2.48 c 0,1.9 1.54,3.43 3.43,3.43 h 4.66 v 10.53 c 0,2.01 1.67,3.65 3.73,3.65 h 5.09 c 2.08,0 3.74,-1.64 3.74,-3.65 v -10.53 h 4.66 c 1.9,0 3.43,-1.53 3.43,-3.43 v -2.48 c 0,-1.89 -1.53,-3.43 -3.43,-3.43 h -4.66 v -1.1 c 28.18,-6.78 32.86,9.05 32.86,9.05 6.4,-7.12 3.56,-13.51 3.56,-13.51 10.95,-2.98 36.1,29.84 48.33,13.37 12.21,-16.5 -2.98,-20.62 -2.98,-20.62 -1.28,-0.2 -2.4,-0.25 -3.42,-0.2 l 31.85,-76.71 c 28.58,49.09 51.51,119.12 53.12,218.02 0,0 -119.39,-27.16 -171.19,51.8 M 0,0 C -0.05,-0.03 -0.1,-0.05 -0.15,-0.07 H 0.1 C 0.07,-0.05 0.03,-0.02 0,0 M 68.08,22.21 64.1,12.11 h 7.99 z M 183.72,11.93 c -1.09,0.88 -2.84,1.32 -5.25,1.32 -0.44,0 -0.94,-0.03 -1.49,-0.08 -0.54,-0.05 -1.09,-0.1 -1.62,-0.14 V 3.04 c 0.63,-0.13 1.28,-0.21 1.94,-0.26 0.65,-0.05 1.28,-0.07 1.86,-0.07 2.1,-0.03 3.65,0.47 4.65,1.5 1,1.02 1.51,2.39 1.53,4.1 0,1.53 -0.54,2.74 -1.62,3.62 m 0,0 c -1.09,0.88 -2.84,1.32 -5.25,1.32 -0.44,0 -0.94,-0.03 -1.49,-0.08 -0.54,-0.05 -1.09,-0.1 -1.62,-0.14 V 3.04 c 0.63,-0.13 1.28,-0.21 1.94,-0.26 0.65,-0.05 1.28,-0.07 1.86,-0.07 2.1,-0.03 3.65,0.47 4.65,1.5 1,1.02 1.51,2.39 1.53,4.1 0,1.53 -0.54,2.74 -1.62,3.62 M 68.08,22.21 64.1,12.11 h 7.99 z M 0,0 C -0.05,-0.03 -0.1,-0.05 -0.15,-0.07 H 0.1 C 0.07,-0.05 0.03,-0.02 0,0 M 0,0 C -0.05,-0.03 -0.1,-0.05 -0.15,-0.07 H 0.1 C 0.07,-0.05 0.03,-0.02 0,0 M 68.08,22.21 64.1,12.11 h 7.99 z m 0,0 -3.98,-10.1 h 7.99 z M 0,0 C -0.05,-0.03 -0.1,-0.05 -0.15,-0.07 H 0.1 C 0.07,-0.05 0.03,-0.02 0,0 M 0,0 C -0.05,-0.03 -0.1,-0.05 -0.15,-0.07 H 0.1 C 0.07,-0.05 0.03,-0.02 0,0 M 68.08,22.21 64.1,12.11 h 7.99 z m 0,0 -3.98,-10.1 h 7.99 z M 0,0 C -0.05,-0.03 -0.1,-0.05 -0.15,-0.07 H 0.1 C 0.07,-0.05 0.03,-0.02 0,0 M 0,0 C -0.05,-0.03 -0.1,-0.05 -0.15,-0.07 H 0.1 C 0.07,-0.05 0.03,-0.02 0,0 M 0,0 C -0.05,-0.03 -0.1,-0.05 -0.15,-0.07 H 0.1 C 0.07,-0.05 0.03,-0.02 0,0" /></g><g
           transform="translate(417.8403,514.1357)"
           id="g32"><path
             id="path34"
             style="fill:#bc9255;fill-opacity:1;fill-rule:nonzero;stroke:none"
             d="M 0,0 V -75.952 H 31.526 Z" /></g><g
           transform="translate(583.2383,438.1836)"
           id="g36"><path
             id="path38"
             style="fill:#bc9255;fill-opacity:1;fill-rule:nonzero;stroke:none"
             d="M 0,0 V 75.952 L -31.508,0 Z" /></g><g
           transform="translate(584.5566,408.8076)"
           id="g40"><path
             id="path42"
             style="fill:#bc9255;fill-opacity:1;fill-rule:nonzero;stroke:none"
             d="m 0,0 c -15.97,0 -29.61,9.991 -35.012,24.065 h -2.981 c -0.578,0 -1.102,0.18 -1.535,0.488 -0.687,0.488 -1.121,1.283 -1.121,2.168 0,0.74 0.29,1.391 0.777,1.879 0.488,0.469 1.139,0.776 1.879,0.776 h 2.312 l 34.273,82.546 c -4.806,1.788 -4.897,6.847 -4.897,6.847 17.055,-6.775 7.534,16.061 -0.144,8.672 -4.878,-4.715 -11.436,-8.835 -15.537,-11.183 -2.33,-1.337 -4.787,-2.421 -7.389,-3.071 -21.734,-5.42 -38.392,-2.331 -47.081,0.325 3.956,-4.968 7.804,-11.563 5.474,-16.35 -1.59,-3.27 -3.704,-4.372 -5.709,-4.463 V 7.263 l 0.903,-6.016 h 3.74 c 1.012,0 1.824,-0.813 1.824,-1.824 v -1.319 c 0,-1.012 -0.812,-1.843 -1.824,-1.843 h -4.77 c 0.036,-0.091 0.072,-0.162 0.127,-0.272 v -3.992 c 1.03,-2.421 1.896,-5.944 1.608,-10.912 -0.036,-0.723 -0.072,-1.409 -0.072,-2.06 0,-9.196 4.136,-11.165 4.389,-11.292 h 3.18 c 1.012,0 1.825,-0.831 1.825,-1.842 v -1.319 c 0,-1.011 -0.813,-1.825 -1.825,-1.825 h -3.685 v -0.65 c 0,-1.012 -0.832,-1.843 -1.843,-1.843 h -3.577 v -14.092 h 5.474 c 1.084,0 1.951,-0.867 1.951,-1.951 v -0.704 h 8.184 c 2.005,0 3.649,-1.645 3.649,-3.65 v -0.021 c 18.611,11.09 44.284,30.343 68.815,61.923 C 7.791,0.617 3.968,0 0,0" /></g><g
           transform="translate(476.0503,347.3457)"
           id="g44"><path
             id="path46"
             style="fill:#bc9255;fill-opacity:1;fill-rule:nonzero;stroke:none"
             d="m 0,0 v 1.319 c 0,2.005 1.626,3.65 3.649,3.65 h 8.166 v 0.704 c 0,1.084 0.886,1.951 1.97,1.951 h 5.474 v 14.092 h -3.848 c -1.012,0 -1.826,0.831 -1.826,1.843 v 0.65 H 9.9 c -1.011,0 -1.842,0.813 -1.842,1.825 v 1.319 c 0,1.011 0.831,1.842 1.842,1.842 h 3.415 l 0.018,0.127 c 1.012,0.632 4.643,3.523 4.065,13.225 -0.307,5.365 0.705,9.069 1.861,11.49 v 3.686 h -4.896 c -1.012,0 -1.825,0.831 -1.825,1.842 v 1.32 c 0,1.011 0.813,1.824 1.825,1.824 h 3.974 l 0.922,6.106 v 85.762 c -2.06,0.054 -4.21,1.12 -5.836,4.462 -2.24,4.607 1.247,10.895 5.023,15.79 -8.78,-2.619 -25.275,-5.51 -46.648,-0.181 -2.583,0.651 -5.059,1.735 -7.371,3.072 -4.101,2.348 -10.659,6.468 -15.555,11.183 -7.678,7.389 -17.199,-15.447 -0.144,-8.672 0,0 -0.091,-6.214 -6.631,-7.299 L -23.83,90.838 h 1.663 c 1.445,0 2.655,-1.192 2.655,-2.655 0,-0.742 -0.307,-1.392 -0.777,-1.879 -0.108,-0.109 -0.234,-0.2 -0.343,-0.289 -0.433,-0.308 -0.976,-0.488 -1.535,-0.488 h -2.331 C -29.9,71.453 -43.54,61.462 -59.511,61.462 c -4.531,0 -8.87,0.817 -12.893,2.29 C -46.765,30.586 -19.827,10.919 -0.973,0 Z" /></g><g
           transform="translate(457.895,578.8398)"
           id="g48"><path
             id="path50"
             style="fill:#ffffff;fill-opacity:1;fill-rule:nonzero;stroke:none"
             d="M 0,0 C -0.05,-0.03 -0.1,-0.05 -0.15,-0.07 H 0.1 C 0.07,-0.05 0.03,-0.02 0,0" /></g><g
           transform="translate(457.895,578.8398)"
           id="g52"><path
             id="path54"
             style="fill:#ffffff;fill-opacity:1;fill-rule:nonzero;stroke:none"
             d="M 0,0 C -0.05,-0.03 -0.1,-0.05 -0.15,-0.07 H 0.1 C 0.07,-0.05 0.03,-0.02 0,0" /></g><g
           transform="translate(384.625,344.2402)"
           id="g56"><path
             id="path58"
             style="fill:#bc9255;fill-opacity:1;fill-rule:nonzero;stroke:none"
             d="m 0,0 c -0.29,-0.69 -0.7,-1.3 -1.24,-1.8 -0.53,-0.511 -1.15,-0.89 -1.86,-1.14 -0.71,-0.241 -1.43,-0.27 -2.17,-0.11 -0.75,0.159 -1.46,0.57 -2.13,1.23 -0.64,0.67 -1.01,1.38 -1.11,2.13 -0.13,0.77 -0.05,1.49 0.24,2.169 0.26,0.691 0.67,1.3 1.23,1.831 0.56,0.53 1.2,0.91 1.9,1.14 0.69,0.25 1.41,0.29 2.18,0.119 C -2.23,5.43 -1.54,5.029 -0.9,4.35 -0.27,3.649 0.1,2.92 0.22,2.16 0.34,1.42 0.27,0.7 0,0 M 1.17,6.3 C -0.21,7.76 -1.92,8.51 -3.94,8.56 -5.4,8.6 -6.72,8.26 -7.9,7.54 l -1.17,1.23 3.97,3.759 -2.04,2.151 -10.18,-9.66 2.06,-2.161 4.28,4.091 1.09,-1.15 c -0.99,-1.24 -1.52,-2.7 -1.56,-4.361 -0.05,-2.029 0.62,-3.769 2,-5.229 1.4,-1.47 3.11,-2.231 5.13,-2.28 2.02,-0.06 3.76,0.61 5.23,2 1.47,1.389 2.23,3.099 2.28,5.13 C 3.24,3.08 2.57,4.819 1.17,6.3" /></g><g
           transform="translate(395.4551,335.3496)"
           id="g60"><path
             id="path62"
             style="fill:#bc9255;fill-opacity:1;fill-rule:nonzero;stroke:none"
             d="M 0,0 C -0.37,-0.43 -0.77,-0.649 -1.21,-0.659 -1.67,-0.67 -2.15,-0.46 -2.64,-0.04 l -1.84,1.561 2.27,2.66 1.83,-1.561 C 0.12,2.2 0.4,1.761 0.46,1.311 0.52,0.87 0.37,0.44 0,0 M 3.12,2.41 C 2.8,3.141 2.34,3.75 1.76,4.25 l -4.52,3.851 -9.08,-10.67 2.25,-1.92 3.4,3.989 2.27,-1.93 c 0.59,-0.5 1.26,-0.84 2.03,-1.049 0.75,-0.201 1.5,-0.18 2.24,0.059 0.73,0.231 1.41,0.7 2.01,1.41 0.61,0.71 0.96,1.441 1.07,2.2 0.11,0.77 0,1.5 -0.31,2.22" /></g><g
           transform="translate(410.395,329.54)"
           id="g64"><path
             id="path66"
             style="fill:#bc9255;fill-opacity:1;fill-rule:nonzero;stroke:none"
             d="m 0,0 -10.43,-3.86 5.33,7.49 -2.31,1.65 -8.14,-11.43 2.24,-1.59 10.43,3.86 -5.33,-7.49 2.31,-1.651 8.14,11.431 z" /></g><g
           transform="translate(416.6948,312.5498)"
           id="g68"><path
             id="path70"
             style="fill:#bc9255;fill-opacity:1;fill-rule:nonzero;stroke:none"
             d="M 0,0 -2.23,1.29 2,8.641 4.24,7.351 Z M 8.13,8.17 0.82,12.37 -4.4,3.3 C -4.54,3.07 -4.68,2.9 -4.84,2.79 L -7.3,4.21 -9.82,-0.17 -7.75,-1.359 -6.68,0.5 1.31,-4.1 0.24,-5.96 2.31,-7.149 4.83,-2.78 2.57,-1.479 Z" /></g><g
           transform="translate(437.7549,314.4805)"
           id="g72"><path
             id="path74"
             style="fill:#bc9255;fill-opacity:1;fill-rule:nonzero;stroke:none"
             d="m 0,0 -9.51,-5.79 3.81,8.38 -2.59,1.18 -5.81,-12.781 2.5,-1.13 9.51,5.781 -3.81,-8.37 2.59,-1.18 5.8,12.769 z" /></g><g
           transform="translate(450.7051,309.5498)"
           id="g76"><path
             id="path78"
             style="fill:#bc9255;fill-opacity:1;fill-rule:nonzero;stroke:none"
             d="m 0,0 -0.01,-0.04 -0.04,0.01 -1.61,-4.59 c -0.27,-0.779 -0.69,-1.3 -1.27,-1.58 -0.59,-0.279 -1.23,-0.3 -1.91,-0.06 -0.69,0.24 -1.18,0.651 -1.46,1.24 -0.28,0.581 -0.28,1.25 -0.01,2.03 L -4.7,1.601 -7.49,2.58 -9.16,-2.18 c -0.35,-1 -0.44,-1.94 -0.27,-2.81 0.17,-0.92 0.57,-1.699 1.19,-2.36 0.63,-0.68 1.4,-1.18 2.3,-1.5 1.25,-0.44 2.28,-0.21 3.08,0.69 l -1.78,-5.08 2.8,-0.98 4.64,13.241 z" /></g><g
           transform="translate(463.9551,303.0098)"
           id="g80"><path
             id="path82"
             style="fill:#bc9255;fill-opacity:1;fill-rule:nonzero;stroke:none"
             d="m 0,0 0.67,2.54 -8.3,2.2 -3.59,-13.57 8.49,-2.25 0.67,2.54 -5.63,1.49 0.82,3.09 4.86,-1.28 0.67,2.49 -4.86,1.29 0.76,2.9 z" /></g><g
           transform="translate(474.2051,292.4404)"
           id="g84"><path
             id="path86"
             style="fill:#bc9255;fill-opacity:1;fill-rule:nonzero;stroke:none"
             d="m 0,0 c -0.68,-0.261 -1.43,-0.32 -2.25,-0.181 -0.77,0.141 -1.42,0.441 -1.96,0.901 -0.55,0.46 -0.94,1.059 -1.17,1.79 -0.17,0.54 -0.24,1.12 -0.19,1.75 0.07,0.559 0.16,1.03 0.25,1.41 0.18,0.6 0.44,1.12 0.79,1.569 0.47,0.601 1.05,1.021 1.72,1.271 0.67,0.24 1.38,0.29 2.15,0.149 C 0.16,8.52 0.85,8.199 1.39,7.71 1.93,7.21 2.29,6.619 2.47,5.939 l 2.52,1 C 4.78,8.09 4.21,9.069 3.28,9.869 2.34,10.659 1.2,11.18 -0.14,11.42 c -1.31,0.229 -2.55,0.159 -3.74,-0.221 -1.18,-0.38 -2.18,-1.05 -3,-2 C -7.7,8.239 -8.24,7.01 -8.52,5.51 -8.78,4.02 -8.7,2.67 -8.27,1.489 -7.84,0.31 -7.13,-0.66 -6.15,-1.431 -5.17,-2.2 -4.03,-2.7 -2.73,-2.94 c 1.35,-0.241 2.59,-0.151 3.74,0.259 1.16,0.42 2.03,1.141 2.63,2.151 L 1.63,1.29 C 1.23,0.71 0.69,0.279 0,0" /></g><g
           transform="translate(493.1851,301.2998)"
           id="g88"><path
             id="path90"
             style="fill:#bc9255;fill-opacity:1;fill-rule:nonzero;stroke:none"
             d="m 0,0 -3.68,0.36 -5.5,-5.65 0.6,6.13 -2.95,0.29 -1.36,-13.97 2.94,-0.28 0.67,6.84 4.42,-7.34 3.76,-0.37 -5.17,8.02 z" /></g><g
           transform="translate(506.2451,291.9404)"
           id="g92"><path
             id="path94"
             style="fill:#bc9255;fill-opacity:1;fill-rule:nonzero;stroke:none"
             d="m 0,0 c -0.32,-0.681 -0.79,-1.221 -1.42,-1.65 -0.63,-0.43 -1.42,-0.67 -2.36,-0.691 -0.93,0 -1.7,0.221 -2.31,0.66 -0.65,0.441 -1.11,0.991 -1.41,1.67 -0.31,0.66 -0.47,1.38 -0.47,2.16 0,0.771 0.16,1.491 0.48,2.151 0.29,0.679 0.76,1.229 1.41,1.67 0.61,0.439 1.38,0.649 2.309,0.649 C -2.83,6.59 -2.04,6.359 -1.4,5.92 -0.78,5.5 -0.311,4.949 0,4.27 0.31,3.579 0.46,2.869 0.46,2.13 0.46,1.399 0.3,0.689 0,0 M 1.439,7.31 C 0.01,8.739 -1.72,9.46 -3.75,9.46 -5.76,9.47 -7.48,8.75 -8.92,7.319 -10.35,5.899 -11.07,4.17 -11.07,2.14 c 0,-2.01 0.71,-3.741 2.14,-5.17 1.43,-1.43 3.15,-2.151 5.159,-2.151 2.031,0 3.761,0.71 5.191,2.141 1.44,1.43 2.15,3.149 2.16,5.159 0,2.03 -0.71,3.761 -2.141,5.191" /></g><g
           transform="translate(521.9854,290.7305)"
           id="g96"><path
             id="path98"
             style="fill:#bc9255;fill-opacity:1;fill-rule:nonzero;stroke:none"
             d="m 0,0 -5.811,-0.49 -0.259,3.189 5.009,0.42 -0.219,2.58 -5.01,-0.429 -0.25,2.99 5.6,0.479 -0.22,2.611 -8.55,-0.72 1.17,-13.981 8.76,0.741 z" /></g><g
           transform="translate(537.6152,296.1201)"
           id="g100"><path
             id="path102"
             style="fill:#bc9255;fill-opacity:1;fill-rule:nonzero;stroke:none"
             d="m 0,0 0.569,5.25 2.71,-4.53 z m 1.54,9.1 -3.4,-0.74 -1.79,-14.74 3.049,0.66 0.351,3.25 4.81,1.05 1.669,-2.81 3.09,0.669 z" /></g><g
           transform="translate(554.5049,306.7002)"
           id="g104"><path
             id="path106"
             style="fill:#bc9255;fill-opacity:1;fill-rule:nonzero;stroke:none"
             d="m 0,0 -0.76,2.53 -8.07,-2.421 4.03,-13.439 2.84,0.85 -3.28,10.91 z" /></g><g
           transform="translate(568.6748,302.5801)"
           id="g108"><path
             id="path110"
             style="fill:#bc9255;fill-opacity:1;fill-rule:nonzero;stroke:none"
             d="m 0,0 -5.45,-2.07 -1.13,3 4.7,1.78 -0.91,2.41 -4.71,-1.78 -1.06,2.81 5.26,1.99 -0.929,2.45 -8.021,-3.03 4.96,-13.13 8.221,3.11 z" /></g><g
           transform="translate(577.7246,319.2598)"
           id="g112"><path
             id="path114"
             style="fill:#bc9255;fill-opacity:1;fill-rule:nonzero;stroke:none"
             d="m 0,0 -2.67,-1.27 2.34,-4.94 -4.909,-2.319 -2.341,4.939 -2.67,-1.269 6,-12.681 2.7,1.28 -2.55,5.34 4.901,2.32 2.529,-5.35 2.681,1.27 z" /></g><g
           transform="translate(586.4248,321.0898)"
           id="g116"><path
             id="path118"
             style="fill:#bc9255;fill-opacity:1;fill-rule:nonzero;stroke:none"
             d="m 0,0 2.72,1.561 -1.329,2.319 -8.04,-4.6 1.339,-2.32 2.741,1.57 5.63,-9.85 2.569,1.47 z" /></g><g
           transform="translate(606.0547,324.04)"
           id="g120"><path
             id="path122"
             style="fill:#bc9255;fill-opacity:1;fill-rule:nonzero;stroke:none"
             d="m 0,0 -2.71,-0.11 c 0.12,-0.69 0.03,-1.37 -0.26,-2.05 -0.3,-0.67 -0.79,-1.24 -1.49,-1.71 -0.64,-0.44 -1.319,-0.68 -2.019,-0.73 -0.72,-0.05 -1.42,0.1 -2.09,0.46 -0.5,0.26 -0.96,0.64 -1.361,1.11 -0.34,0.46 -0.61,0.86 -0.809,1.19 -0.29,0.55 -0.471,1.11 -0.531,1.68 -0.089,0.75 0.031,1.46 0.34,2.1 0.3,0.64 0.781,1.18 1.42,1.62 0.691,0.47 1.401,0.72 2.14,0.75 0.73,0.02 1.4,-0.15 2,-0.51 l 1.1,2.48 C -5.22,6.96 -6.319,7.26 -7.54,7.18 -8.76,7.09 -9.939,6.66 -11.06,5.89 -12.16,5.14 -13,4.22 -13.58,3.12 c -0.58,-1.1 -0.83,-2.28 -0.75,-3.53 0.091,-1.26 0.56,-2.52 1.42,-3.78 0.85,-1.26 1.85,-2.16 2.99,-2.7 1.13,-0.54 2.32,-0.74 3.561,-0.61 1.229,0.14 2.399,0.58 3.5,1.33 1.12,0.76 1.96,1.7 2.489,2.8 C 0.16,-2.26 0.28,-1.14 0,0" /></g><g
           transform="translate(607.6348,335.7803)"
           id="g124"><path
             id="path126"
             style="fill:#bc9255;fill-opacity:1;fill-rule:nonzero;stroke:none"
             d="m 0,0 2.46,1.96 -1.68,2.1 -7.23,-5.781 1.671,-2.099 2.469,1.969 7.09,-8.859 2.31,1.85 z" /></g><g
           transform="translate(622.9854,338.2402)"
           id="g128"><path
             id="path130"
             style="fill:#bc9255;fill-opacity:1;fill-rule:nonzero;stroke:none"
             d="m 0,0 c -0.061,-0.44 -0.311,-0.88 -0.771,-1.3 l -2.24,-2.091 -0.909,0.981 -1.37,1.47 2.229,2.07 C -2.601,1.55 -2.15,1.779 -1.69,1.819 -1.24,1.859 -0.83,1.68 -0.46,1.29 -0.091,0.89 0.06,0.46 0,0 m -8.98,3.06 1.929,1.79 C -6.69,5.18 -6.33,5.34 -5.95,5.33 -5.591,5.3 -5.25,5.12 -4.931,4.779 -4.63,4.45 -4.48,4.1 -4.49,3.729 -4.511,3.33 -4.69,2.979 -5.04,2.649 L -6.95,0.88 Z M 2.96,1.37 C 2.81,2.05 2.5,2.649 2.01,3.18 1.399,3.84 0.699,4.22 -0.07,4.34 -0.851,4.439 -1.66,4.18 -2.5,3.54 -2.141,4.13 -2,4.75 -2.07,5.41 -2.15,6.08 -2.42,6.67 -2.9,7.18 -3.7,8.04 -4.601,8.45 -5.601,8.42 -6.61,8.39 -7.601,7.92 -8.551,7.04 L -12.92,2.979 -3.37,-7.3 1.38,-2.891 c 0.72,0.67 1.2,1.37 1.45,2.111 0.25,0.74 0.29,1.45 0.13,2.15" /></g><g
           transform="translate(634.2549,350.1699)"
           id="g132"><path
             id="path134"
             style="fill:#bc9255;fill-opacity:1;fill-rule:nonzero;stroke:none"
             d="m 0,0 c -0.1,-0.76 -0.45,-1.5 -1.06,-2.22 -0.62,-0.69 -1.29,-1.12 -2.02,-1.28 -0.76,-0.189 -1.49,-0.17 -2.19,0.061 -0.7,0.199 -1.34,0.569 -1.919,1.079 -0.581,0.52 -1.011,1.12 -1.29,1.8 C -8.79,0.1 -8.89,0.83 -8.78,1.6 -8.7,2.35 -8.35,3.061 -7.729,3.76 -7.09,4.44 -6.39,4.87 -5.64,5.05 -4.91,5.23 -4.18,5.22 -3.47,5 -2.75,4.771 -2.12,4.41 -1.57,3.92 -1.02,3.43 -0.59,2.84 -0.28,2.15 0.01,1.47 0.101,0.75 0,0 M 2.94,1.19 C 2.82,3.21 2.021,4.89 0.521,6.24 -0.99,7.59 -2.76,8.21 -4.78,8.1 -6.8,7.99 -8.49,7.18 -9.84,5.67 c -1.34,-1.5 -1.96,-3.26 -1.849,-5.28 0.119,-2.02 0.929,-3.71 2.439,-5.06 1.5,-1.35 3.26,-1.96 5.28,-1.85 2.02,0.11 3.7,0.91 5.04,2.42 1.36,1.51 1.98,3.27 1.87,5.29" /></g><g
           transform="translate(649.1914,461.2578)"
           id="g136"><path
             id="path138"
             style="fill:#bc9255;fill-opacity:1;fill-rule:nonzero;stroke:none"
             d="M 0,0 C 0,0 -15.863,-9.187 -7.603,-22.845 7.194,-16.86 0,0 0,0" /></g><g
           transform="translate(656.9375,435.9883)"
           id="g140"><path
             id="path142"
             style="fill:#bc9255;fill-opacity:1;fill-rule:nonzero;stroke:none"
             d="M 0,0 C 0,0 -14.232,6.054 -19.268,-6.437 -7.735,-13.394 0,0 0,0" /></g><g
           transform="translate(654.8145,421.0596)"
           id="g144"><path
             id="path146"
             style="fill:#bc9255;fill-opacity:1;fill-rule:nonzero;stroke:none"
             d="M 0,0 C 0,0 -16.581,7.817 -23.112,-6.747 -9.771,-15.511 0,0 0,0" /></g><g
           transform="translate(620.2715,435.9375)"
           id="g148"><path
             id="path150"
             style="fill:#bc9255;fill-opacity:1;fill-rule:nonzero;stroke:none"
             d="M 0,0 C 0,0 -4.542,-17.76 10.995,-21.42 17.078,-6.662 0,0 0,0" /></g><g
           transform="translate(647.6162,405.9697)"
           id="g152"><path
             id="path154"
             style="fill:#bc9255;fill-opacity:1;fill-rule:nonzero;stroke:none"
             d="M 0,0 C 0,0 -15.912,9.102 -23.572,-4.902 -10.965,-14.691 0,0 0,0" /></g><g
           transform="translate(614.3555,423.5283)"
           id="g156"><path
             id="path158"
             style="fill:#bc9255;fill-opacity:1;fill-rule:nonzero;stroke:none"
             d="M 0,0 C 0,0 -5.93,-17.346 9.27,-22.221 16.499,-7.99 0,0 0,0" /></g><g
           transform="translate(638.835,392.5557)"
           id="g160"><path
             id="path162"
             style="fill:#bc9255;fill-opacity:1;fill-rule:nonzero;stroke:none"
             d="M 0,0 C 0,0 -15.157,10.312 -23.882,-3.055 -12.073,-13.794 0,0 0,0" /></g><g
           transform="translate(607.0391,412.6465)"
           id="g164"><path
             id="path166"
             style="fill:#bc9255;fill-opacity:1;fill-rule:nonzero;stroke:none"
             d="M 0,0 C 0,0 -7.259,-16.833 7.516,-22.874 15.828,-9.248 0,0 0,0" /></g><g
           transform="translate(627.1807,376.0371)"
           id="g168"><path
             id="path170"
             style="fill:#bc9255;fill-opacity:1;fill-rule:nonzero;stroke:none"
             d="M 0,0 C 0,0 -13.624,12.265 -24.075,0.2 -13.826,-12.037 0,0 0,0" /></g><g
           transform="translate(598.6494,400.7305)"
           id="g172"><path
             id="path174"
             style="fill:#bc9255;fill-opacity:1;fill-rule:nonzero;stroke:none"
             d="M 0,0 C 0,0 -9.468,-15.697 4.355,-23.68 14.434,-11.302 0,0 0,0" /></g><g
           transform="translate(612.8857,362.626)"
           id="g176"><path
             id="path178"
             style="fill:#bc9255;fill-opacity:1;fill-rule:nonzero;stroke:none"
             d="M 0,0 C 0,0 -12.501,13.408 -23.967,2.304 -14.825,-10.782 0,0 0,0" /></g><g
           transform="translate(585.9629,389.5215)"
           id="g180"><path
             id="path182"
             style="fill:#bc9255;fill-opacity:1;fill-rule:nonzero;stroke:none"
             d="M 0,0 C 0,0 -10.27,-15.185 3.12,-23.873 13.827,-12.035 0,0 0,0" /></g><g
           transform="translate(597.7227,349.7461)"
           id="g184"><path
             id="path186"
             style="fill:#bc9255;fill-opacity:1;fill-rule:nonzero;stroke:none"
             d="M 0,0 C 0,0 -10.236,15.207 -23.306,6.044 -16.337,-8.316 0,0 0,0" /></g><g
           transform="translate(575.4375,380.0469)"
           id="g188"><path
             id="path190"
             style="fill:#bc9255;fill-opacity:1;fill-rule:nonzero;stroke:none"
             d="M 0,0 C 0,0 -12.53,-13.38 -0.675,-24.067 11.762,-14.061 0,0 0,0" /></g><g
           transform="translate(581.0732,344.3652)"
           id="g192"><path
             id="path194"
             style="fill:#bc9255;fill-opacity:1;fill-rule:nonzero;stroke:none"
             d="M 0,0 C 0,0 -8.771,13.032 -19.972,5.18 -14,-7.126 0,0 0,0" /></g><g
           transform="translate(562.8926,370.3555)"
           id="g196"><path
             id="path198"
             style="fill:#bc9255;fill-opacity:1;fill-rule:nonzero;stroke:none"
             d="M 0,0 C 0,0 -11.33,-10.881 -1.67,-20.564 9.427,-12.566 0,0 0,0" /></g><g
           transform="translate(629,446.6016)"
           id="g200"><path
             id="path202"
             style="fill:#bc9255;fill-opacity:1;fill-rule:nonzero;stroke:none"
             d="M 0,0 C 0,0 -3.254,-15.121 9.964,-17.703 14.614,-5.063 0,0 0,0" /></g><g
           transform="translate(549.333,343.6836)"
           id="g204"><path
             id="path206"
             style="fill:#bc9255;fill-opacity:1;fill-rule:nonzero;stroke:none"
             d="M 0,0 -0.542,1.484 C 26.25,11.268 73.926,36.725 92.202,97.31 l 1.513,-0.456 C 75.24,35.608 27.069,9.884 0,0" /></g><g
           transform="translate(353.1304,459.7246)"
           id="g208"><path
             id="path210"
             style="fill:#bc9255;fill-opacity:1;fill-rule:nonzero;stroke:none"
             d="M 0,0 C 0,0 15.864,-9.187 7.603,-22.845 -7.195,-16.86 0,0 0,0" /></g><g
           transform="translate(345.3843,434.4551)"
           id="g212"><path
             id="path214"
             style="fill:#bc9255;fill-opacity:1;fill-rule:nonzero;stroke:none"
             d="M 0,0 C 0,0 14.233,6.054 19.267,-6.437 7.735,-13.394 0,0 0,0" /></g><g
           transform="translate(347.5073,419.5264)"
           id="g216"><path
             id="path218"
             style="fill:#bc9255;fill-opacity:1;fill-rule:nonzero;stroke:none"
             d="M 0,0 C 0,0 16.581,7.817 23.112,-6.747 9.771,-15.511 0,0 0,0" /></g><g
           transform="translate(382.0503,434.4043)"
           id="g220"><path
             id="path222"
             style="fill:#bc9255;fill-opacity:1;fill-rule:nonzero;stroke:none"
             d="M 0,0 C 0,0 4.542,-17.76 -10.995,-21.42 -17.078,-6.662 0,0 0,0" /></g><g
           transform="translate(354.7056,404.4365)"
           id="g224"><path
             id="path226"
             style="fill:#bc9255;fill-opacity:1;fill-rule:nonzero;stroke:none"
             d="M 0,0 C 0,0 15.912,9.102 23.573,-4.902 10.965,-14.691 0,0 0,0" /></g><g
           transform="translate(387.9658,421.9951)"
           id="g228"><path
             id="path230"
             style="fill:#bc9255;fill-opacity:1;fill-rule:nonzero;stroke:none"
             d="M 0,0 C 0,0 5.93,-17.346 -9.27,-22.221 -16.499,-7.99 0,0 0,0" /></g><g
           transform="translate(363.4868,391.0225)"
           id="g232"><path
             id="path234"
             style="fill:#bc9255;fill-opacity:1;fill-rule:nonzero;stroke:none"
             d="M 0,0 C 0,0 15.157,10.312 23.882,-3.055 12.073,-13.794 0,0 0,0" /></g><g
           transform="translate(395.2822,411.1133)"
           id="g236"><path
             id="path238"
             style="fill:#bc9255;fill-opacity:1;fill-rule:nonzero;stroke:none"
             d="M 0,0 C 0,0 7.26,-16.833 -7.515,-22.874 -15.828,-9.248 0,0 0,0" /></g><g
           transform="translate(375.1406,374.5039)"
           id="g240"><path
             id="path242"
             style="fill:#bc9255;fill-opacity:1;fill-rule:nonzero;stroke:none"
             d="M 0,0 C 0,0 13.625,12.265 24.076,0.2 13.827,-12.037 0,0 0,0" /></g><g
           transform="translate(403.6724,399.1973)"
           id="g244"><path
             id="path246"
             style="fill:#bc9255;fill-opacity:1;fill-rule:nonzero;stroke:none"
             d="M 0,0 C 0,0 9.467,-15.697 -4.355,-23.68 -14.434,-11.302 0,0 0,0" /></g><g
           transform="translate(389.436,361.0928)"
           id="g248"><path
             id="path250"
             style="fill:#bc9255;fill-opacity:1;fill-rule:nonzero;stroke:none"
             d="M 0,0 C 0,0 12.501,13.408 23.966,2.304 14.826,-10.782 0,0 0,0" /></g><g
           transform="translate(416.3584,387.9883)"
           id="g252"><path
             id="path254"
             style="fill:#bc9255;fill-opacity:1;fill-rule:nonzero;stroke:none"
             d="M 0,0 C 0,0 10.27,-15.185 -3.12,-23.873 -13.827,-12.035 0,0 0,0" /></g><g
           transform="translate(404.5991,348.2129)"
           id="g256"><path
             id="path258"
             style="fill:#bc9255;fill-opacity:1;fill-rule:nonzero;stroke:none"
             d="M 0,0 C 0,0 10.236,15.207 23.306,6.044 16.337,-8.316 0,0 0,0" /></g><g
           transform="translate(426.8843,378.5137)"
           id="g260"><path
             id="path262"
             style="fill:#bc9255;fill-opacity:1;fill-rule:nonzero;stroke:none"
             d="M 0,0 C 0,0 12.531,-13.38 0.674,-24.067 -11.762,-14.061 0,0 0,0" /></g><g
           transform="translate(421.2485,342.832)"
           id="g264"><path
             id="path266"
             style="fill:#bc9255;fill-opacity:1;fill-rule:nonzero;stroke:none"
             d="M 0,0 C 0,0 8.772,13.032 19.972,5.18 14,-7.126 0,0 0,0" /></g><g
           transform="translate(439.4292,368.8223)"
           id="g268"><path
             id="path270"
             style="fill:#bc9255;fill-opacity:1;fill-rule:nonzero;stroke:none"
             d="M 0,0 C 0,0 11.331,-10.881 1.67,-20.564 -9.426,-12.566 0,0 0,0" /></g><g
           transform="translate(373.3218,445.0684)"
           id="g272"><path
             id="path274"
             style="fill:#bc9255;fill-opacity:1;fill-rule:nonzero;stroke:none"
             d="M 0,0 C 0,0 3.254,-15.121 -9.964,-17.703 -14.615,-5.063 0,0 0,0" /></g><g
           transform="translate(452.9893,342.1504)"
           id="g276"><path
             id="path278"
             style="fill:#bc9255;fill-opacity:1;fill-rule:nonzero;stroke:none"
             d="M 0,0 0.542,1.484 C -26.25,11.268 -73.926,36.725 -92.203,97.31 l -1.513,-0.456 C -75.241,35.608 -27.07,9.884 0,0" /></g><g
           transform="translate(463.7139,337.0469)"
           id="g280"><path
             id="path282"
             style="fill:#bc9255;fill-opacity:1;fill-rule:nonzero;stroke:none"
             d="M 0,0 C 9.313,-3.284 40.161,-13.527 44.44,1.686 46.684,9.659 36.53,16.3 33.04,7.769 28.437,-3.485 41.455,-6.956 49.563,-6.649 c 9.25,0.35 18.683,2.785 27.364,5.934 1.397,0.507 0.093,0.89 -0.755,0.582 C 69.699,-2.48 62.858,-4.257 56.041,-5.193 50.783,-5.915 44.17,-6.602 39.312,-3.903 35.77,-1.936 32.144,4.885 35.361,8.754 37.354,11.15 40.835,9.36 41.945,7.458 42.541,6.439 42.664,5.037 42.671,3.871 42.689,0.708 41.31,-1.895 38.516,-3.433 33.609,-6.135 26.315,-4.913 21.03,-4.073 14.491,-3.034 7.958,-1.333 1.712,0.869 1.202,1.049 -0.69,0.243 0,0" /></g></g></g></g></svg>